<svg width="600" height="338" viewBox="0 0 600 338" fill="none" xmlns="http://www.w3.org/2000/svg">
<g clip-path="url(#clip0_10_15149)">
<rect width="600" height="338" fill="white"/>
<g opacity="0.7">
<g clip-path="url(#clip1_10_15149)">
<path d="M258.125 0H600V341.875H258.125V0Z" fill="white"/>
<g clip-path="url(#clip2_10_15149)">
<path d="M514.531 170.938C491.863 170.938 470.124 161.933 454.096 145.905C438.067 129.876 429.062 108.137 429.062 85.4692C429.062 62.8015 438.067 41.0622 454.096 25.0337C470.124 9.00519 491.863 0.000473976 514.531 0.000473976L600 0.000473976V85.4692C599.998 108.136 590.992 129.874 574.964 145.902C558.936 161.93 537.198 170.936 514.531 170.938ZM557.266 42.7349L514.531 42.7349C506.079 42.7349 497.817 45.2412 490.789 49.9369C483.762 54.6326 478.284 61.3068 475.05 69.1155C471.815 76.9242 470.969 85.5166 472.618 93.8063C474.267 102.096 478.337 109.71 484.313 115.687C490.29 121.664 497.904 125.734 506.194 127.382C514.484 129.031 523.076 128.185 530.885 124.951C538.694 121.716 545.368 116.239 550.063 109.211C554.759 102.184 557.266 93.9213 557.266 85.4692V42.7349Z" fill="#F18701"/>
</g>
<g clip-path="url(#clip3_10_15149)">
<path d="M600 341.875C577.332 341.875 555.593 332.871 539.564 316.842C523.536 300.814 514.531 279.074 514.531 256.407C514.531 233.739 523.536 211.999 539.564 195.971C555.593 179.942 577.332 170.938 600 170.938V341.875Z" fill="#3D348B"/>
</g>
</g>
<g clip-path="url(#clip4_10_15149)">
<path d="M85.4687 171.191C38.2656 171.191 -4.57764e-05 132.869 -4.57764e-05 85.5956C-4.57764e-05 38.3226 38.2656 0.000244141 85.4687 0.000244141C132.672 0.000244141 170.937 38.3226 170.937 85.5956C170.937 132.869 132.672 171.191 85.4687 171.191Z" fill="#7678ED"/>
</g>
<g clip-path="url(#clip5_10_15149)">
<path d="M85.4687 342.381C102.373 342.381 118.897 337.361 132.953 327.956C147.008 318.551 157.963 305.183 164.432 289.542C170.9 273.901 172.593 256.691 169.295 240.087C165.997 223.483 157.857 208.232 145.904 196.261C133.951 184.29 118.722 176.138 102.143 172.835C85.5635 169.533 68.3786 171.228 52.7612 177.706C37.1439 184.185 23.7955 195.156 14.404 209.232C5.01261 223.308 -4.81844e-05 239.857 -4.81844e-05 256.786V342.381H85.4687Z" fill="#F7B801"/>
</g>
</g>
<g filter="url(#filter0_d_10_15149)">
<path d="M314.953 196.625H299.939V127.96H314.953V168.152L319.714 162.338L330.654 150.848H349.469L329.876 171.402L351.528 196.625H332.165L319.577 180.511L314.953 184.311V196.625ZM378.125 196.625V127.96H394.238V196.625H378.125ZM438.183 195.389C434.521 196.823 430.966 197.54 427.517 197.54C423.886 197.54 420.666 196.777 417.858 195.251C415.081 193.695 412.915 191.559 411.358 188.843C409.802 186.096 409.024 182.907 409.024 179.276V164.261H401.013V150.848H409.848V139.404H424.038V150.848H436.398V164.261H424.038V176.575C424.038 178.986 424.71 180.847 426.052 182.159C427.395 183.472 429.013 184.128 430.905 184.128C432.736 184.128 434.521 183.548 436.261 182.388L438.183 195.389Z" fill="black"/>
<path d="M459.22 196.969C460.611 196.969 461.97 196.556 463.126 195.784C464.282 195.011 465.183 193.913 465.715 192.628C466.247 191.343 466.386 189.929 466.115 188.566C465.843 187.202 465.174 185.949 464.191 184.965C463.208 183.982 461.955 183.312 460.592 183.041C459.228 182.77 457.815 182.909 456.53 183.441C455.246 183.973 454.148 184.875 453.375 186.031C452.603 187.187 452.191 188.547 452.191 189.937V196.969H459.22Z" fill="#F7B801"/>
<path d="M452.191 126.656H464.844L463.204 176.109H454.768L452.191 126.656Z" fill="black"/>
<path d="M274.108 196.969C267.023 196.969 260.229 194.153 255.219 189.143C250.21 184.132 247.395 177.336 247.395 170.25C247.395 163.164 250.21 156.367 255.219 151.357C260.229 146.346 267.023 143.531 274.108 143.531V196.969Z" fill="#7678ED"/>
<path d="M214.123 196.969C221.207 196.969 228.002 194.153 233.011 189.143C238.021 184.132 240.835 177.336 240.835 170.25C240.835 163.164 238.021 156.367 233.011 151.357C228.002 146.346 221.207 143.531 214.123 143.531V196.969Z" fill="#F18701"/>
<path d="M138.916 196.625V127.96H164.688C172.318 127.96 178.223 129.547 182.404 132.721C186.615 135.895 188.721 140.35 188.721 146.087C188.721 149.444 187.943 152.42 186.386 155.014C184.86 157.608 182.785 159.607 180.161 161.01C183.975 162.201 186.936 164.184 189.041 166.961C191.178 169.739 192.246 173.156 192.246 177.215C192.246 181.152 191.284 184.57 189.362 187.469C187.439 190.368 184.723 192.627 181.214 194.244C177.735 195.831 173.615 196.625 168.854 196.625H138.916ZM155.03 156.158H163.681C166.55 156.158 168.793 155.533 170.41 154.281C172.028 153 172.837 151.23 172.837 148.971C172.837 146.835 172.013 145.141 170.365 143.89C168.747 142.639 166.489 142.013 163.59 142.013H155.03V156.158ZM155.03 182.571H164.734C167.023 182.571 168.991 182.281 170.639 181.701C172.287 181.091 173.554 180.237 174.439 179.138C175.324 178.009 175.766 176.681 175.766 175.155C175.766 173.63 175.37 172.348 174.576 171.31C173.783 170.242 172.638 169.433 171.143 168.884C169.647 168.304 167.832 168.014 165.695 168.014H155.03V182.571Z" fill="black"/>
</g>
<path d="M183.433 217.887H185.278V225.695L184.423 225.875C184.138 225.875 183.898 225.785 183.703 225.605C183.523 225.41 183.433 225.17 183.433 224.885V217.887ZM184.423 225.875V224.3H191.736C191.811 224.36 191.871 224.457 191.916 224.592C191.961 224.727 191.983 224.877 191.983 225.042C191.983 225.297 191.916 225.5 191.781 225.65C191.646 225.8 191.466 225.875 191.241 225.875H184.423ZM185.278 219.237H183.433V212.24C183.508 212.21 183.621 212.18 183.771 212.15C183.936 212.105 184.108 212.082 184.288 212.082C184.618 212.082 184.866 212.15 185.031 212.285C185.196 212.405 185.278 212.615 185.278 212.915V219.237ZM203.823 220.677C203.823 221.787 203.613 222.755 203.193 223.58C202.773 224.405 202.181 225.042 201.416 225.492C200.651 225.942 199.751 226.167 198.716 226.167C197.681 226.167 196.773 225.942 195.993 225.492C195.228 225.042 194.636 224.405 194.216 223.58C193.796 222.755 193.586 221.787 193.586 220.677C193.586 219.552 193.796 218.585 194.216 217.775C194.651 216.95 195.251 216.312 196.016 215.862C196.796 215.412 197.696 215.187 198.716 215.187C199.736 215.187 200.628 215.412 201.393 215.862C202.158 216.312 202.751 216.95 203.171 217.775C203.606 218.585 203.823 219.552 203.823 220.677ZM198.716 216.672C197.711 216.672 196.908 217.032 196.308 217.752C195.723 218.457 195.431 219.432 195.431 220.677C195.431 221.937 195.716 222.92 196.286 223.625C196.871 224.33 197.681 224.682 198.716 224.682C199.736 224.682 200.531 224.33 201.101 223.625C201.686 222.905 201.978 221.922 201.978 220.677C201.978 219.432 201.686 218.457 201.101 217.752C200.531 217.032 199.736 216.672 198.716 216.672ZM214.106 215.277C214.361 215.277 214.564 215.345 214.714 215.48C214.879 215.615 214.961 215.81 214.961 216.065C214.961 216.26 214.879 216.627 214.714 217.167C214.549 217.707 214.331 218.352 214.061 219.102C213.791 219.852 213.491 220.64 213.161 221.465C212.846 222.275 212.516 223.062 212.171 223.827C211.841 224.577 211.534 225.23 211.249 225.785C211.174 225.845 211.039 225.897 210.844 225.942C210.664 225.987 210.469 226.01 210.259 226.01C210.004 226.01 209.779 225.965 209.584 225.875C209.389 225.8 209.254 225.687 209.179 225.537C209.014 225.237 208.796 224.802 208.526 224.232C208.271 223.647 207.994 222.987 207.694 222.252C207.394 221.517 207.086 220.76 206.771 219.98C206.471 219.185 206.194 218.427 205.939 217.707C205.684 216.972 205.474 216.327 205.309 215.772C205.414 215.622 205.556 215.502 205.736 215.412C205.916 215.322 206.096 215.277 206.276 215.277C206.546 215.277 206.756 215.345 206.906 215.48C207.056 215.615 207.184 215.84 207.289 216.155L208.684 220.182C208.804 220.527 208.961 220.955 209.156 221.465C209.351 221.975 209.546 222.485 209.741 222.995C209.936 223.505 210.094 223.932 210.214 224.277H210.304C210.904 222.762 211.466 221.27 211.991 219.8C212.516 218.315 212.966 216.867 213.341 215.457C213.536 215.337 213.791 215.277 214.106 215.277ZM217.938 221.825L217.848 220.407L224.643 219.485C224.583 218.66 224.298 217.985 223.788 217.46C223.278 216.92 222.573 216.65 221.673 216.65C220.743 216.65 219.971 216.987 219.356 217.662C218.756 218.322 218.456 219.275 218.456 220.52V221.015C218.561 222.215 218.951 223.13 219.626 223.76C220.316 224.375 221.253 224.682 222.438 224.682C223.068 224.682 223.638 224.577 224.148 224.367C224.658 224.157 225.063 223.932 225.363 223.692C225.528 223.797 225.656 223.925 225.746 224.075C225.851 224.21 225.903 224.367 225.903 224.547C225.903 224.832 225.738 225.102 225.408 225.357C225.093 225.597 224.666 225.792 224.126 225.942C223.601 226.092 223.008 226.167 222.348 226.167C221.193 226.167 220.188 225.957 219.333 225.537C218.493 225.117 217.841 224.495 217.376 223.67C216.926 222.83 216.701 221.81 216.701 220.61C216.701 219.755 216.821 218.997 217.061 218.337C217.316 217.662 217.661 217.092 218.096 216.627C218.546 216.162 219.078 215.81 219.693 215.57C220.308 215.315 220.976 215.187 221.696 215.187C222.611 215.187 223.413 215.382 224.103 215.772C224.808 216.162 225.356 216.71 225.746 217.415C226.151 218.105 226.353 218.9 226.353 219.8C226.353 220.13 226.278 220.37 226.128 220.52C225.978 220.655 225.768 220.737 225.498 220.767L217.938 221.825ZM233.3 212.195C233.3 211.88 233.413 211.617 233.638 211.407C233.863 211.182 234.14 211.07 234.47 211.07C234.815 211.07 235.093 211.182 235.303 211.407C235.513 211.617 235.618 211.88 235.618 212.195C235.618 212.51 235.513 212.78 235.303 213.005C235.093 213.215 234.815 213.32 234.47 213.32C234.14 213.32 233.863 213.215 233.638 213.005C233.413 212.78 233.3 212.51 233.3 212.195ZM233.57 219.935H235.37V225.83C235.295 225.86 235.183 225.89 235.033 225.92C234.883 225.965 234.718 225.987 234.538 225.987C234.223 225.987 233.983 225.927 233.818 225.807C233.653 225.672 233.57 225.462 233.57 225.177V219.935ZM235.37 220.812H233.57V215.525C233.645 215.495 233.758 215.465 233.908 215.435C234.073 215.39 234.245 215.367 234.425 215.367C234.74 215.367 234.973 215.435 235.123 215.57C235.288 215.69 235.37 215.9 235.37 216.2V220.812ZM238.907 219.935H240.707V223.04C240.707 223.64 240.88 224.067 241.225 224.322C241.57 224.562 242.042 224.682 242.642 224.682C242.897 224.682 243.182 224.637 243.497 224.547C243.812 224.457 244.075 224.352 244.285 224.232C244.375 224.322 244.457 224.435 244.532 224.57C244.607 224.705 244.645 224.862 244.645 225.042C244.645 225.372 244.45 225.642 244.06 225.852C243.67 226.062 243.13 226.167 242.44 226.167C241.39 226.167 240.535 225.935 239.875 225.47C239.23 225.005 238.907 224.232 238.907 223.152V219.935ZM239.83 217.19V215.705H244.397C244.442 215.765 244.487 215.862 244.532 215.997C244.577 216.132 244.6 216.275 244.6 216.425C244.6 216.665 244.54 216.852 244.42 216.987C244.3 217.122 244.135 217.19 243.925 217.19H239.83ZM240.707 220.61H238.907V212.465C238.982 212.435 239.095 212.405 239.245 212.375C239.41 212.33 239.582 212.307 239.762 212.307C240.077 212.307 240.31 212.375 240.46 212.51C240.625 212.63 240.707 212.832 240.707 213.117V220.61Z" fill="black"/>
<path d="M258.5 222.5C256.774 222.5 255.375 221.101 255.375 219.375C255.375 217.649 256.774 216.25 258.5 216.25C260.226 216.25 261.625 217.649 261.625 219.375C261.625 221.101 260.226 222.5 258.5 222.5Z" fill="#3D348B"/>
<path d="M280.929 218.022V219.507H274.742V218.022H280.929ZM278.342 219.507L279.062 218.382C280.082 218.382 280.929 218.555 281.604 218.9C282.279 219.23 282.782 219.672 283.112 220.227C283.457 220.782 283.629 221.405 283.629 222.095C283.629 223.46 283.134 224.472 282.144 225.132C281.169 225.792 279.774 226.122 277.959 226.122C277.554 226.122 277.149 226.107 276.744 226.077C276.339 226.062 275.942 226.025 275.552 225.965C275.162 225.905 274.787 225.83 274.427 225.74C273.797 225.56 273.482 225.215 273.482 224.705V213.185C273.482 212.945 273.542 212.757 273.662 212.622C273.797 212.487 273.984 212.39 274.224 212.33C274.734 212.18 275.274 212.082 275.844 212.037C276.429 211.977 277.052 211.947 277.712 211.947C279.407 211.947 280.727 212.255 281.672 212.87C282.617 213.47 283.089 214.392 283.089 215.637C283.089 216.267 282.932 216.852 282.617 217.392C282.317 217.917 281.822 218.345 281.132 218.675C280.457 218.99 279.549 219.147 278.409 219.147L278.207 218.022C279.197 218.022 279.947 217.82 280.457 217.415C280.967 216.995 281.222 216.417 281.222 215.682C281.222 214.932 280.922 214.377 280.322 214.017C279.737 213.642 278.867 213.455 277.712 213.455C277.202 213.455 276.752 213.477 276.362 213.522C275.972 213.552 275.612 213.597 275.282 213.657V224.367C275.642 224.442 276.054 224.502 276.519 224.547C276.999 224.592 277.479 224.615 277.959 224.615C279.204 224.615 280.149 224.405 280.794 223.985C281.439 223.565 281.762 222.92 281.762 222.05C281.762 221.27 281.469 220.655 280.884 220.205C280.314 219.74 279.467 219.507 278.342 219.507ZM286.526 222.072V220.025H288.326V221.982C288.326 222.942 288.581 223.632 289.091 224.052C289.601 224.472 290.306 224.682 291.206 224.682C291.806 224.682 292.316 224.622 292.736 224.502C293.156 224.367 293.486 224.232 293.726 224.097V220.025H295.526V224.03C295.526 224.345 295.481 224.6 295.391 224.795C295.316 224.975 295.121 225.155 294.806 225.335C294.476 225.53 294.004 225.717 293.389 225.897C292.774 226.077 292.039 226.167 291.184 226.167C290.194 226.167 289.346 226.025 288.641 225.74C287.951 225.44 287.426 224.99 287.066 224.39C286.706 223.775 286.526 223.002 286.526 222.072ZM295.526 221.195H293.726V215.525C293.801 215.495 293.914 215.465 294.064 215.435C294.229 215.39 294.394 215.367 294.559 215.367C294.889 215.367 295.129 215.435 295.279 215.57C295.444 215.69 295.526 215.9 295.526 216.2V221.195ZM288.326 221.195H286.526V215.525C286.601 215.495 286.714 215.465 286.864 215.435C287.029 215.39 287.201 215.367 287.381 215.367C287.696 215.367 287.929 215.435 288.079 215.57C288.244 215.69 288.326 215.9 288.326 216.2V221.195ZM301.012 223.557C300.757 223.077 300.449 222.432 300.089 221.622C299.729 220.797 299.354 219.882 298.964 218.877C298.589 217.857 298.229 216.822 297.884 215.772C297.989 215.622 298.124 215.502 298.289 215.412C298.469 215.322 298.657 215.277 298.852 215.277C299.107 215.277 299.317 215.345 299.482 215.48C299.647 215.615 299.782 215.84 299.887 216.155C300.337 217.415 300.809 218.667 301.304 219.912C301.799 221.157 302.347 222.447 302.947 223.782H303.037C303.352 223.152 303.682 222.365 304.027 221.42C304.372 220.475 304.702 219.477 305.017 218.427C305.332 217.377 305.594 216.387 305.804 215.457C305.909 215.412 306.022 215.375 306.142 215.345C306.277 215.3 306.419 215.277 306.569 215.277C306.824 215.277 307.034 215.345 307.199 215.48C307.364 215.6 307.447 215.787 307.447 216.042C307.447 216.282 307.379 216.687 307.244 217.257C307.109 217.812 306.922 218.465 306.682 219.215C306.457 219.95 306.187 220.737 305.872 221.577C305.572 222.402 305.242 223.22 304.882 224.03C304.537 224.825 304.184 225.545 303.824 226.19C303.134 227.465 302.504 228.44 301.934 229.115C301.364 229.805 300.839 230.15 300.359 230.15C300.014 230.15 299.744 230.06 299.549 229.88C299.369 229.7 299.257 229.49 299.212 229.25C299.542 228.965 299.909 228.582 300.314 228.102C300.734 227.637 301.132 227.127 301.507 226.572C301.897 226.032 302.212 225.515 302.452 225.02C302.197 224.945 301.957 224.81 301.732 224.615C301.522 224.42 301.282 224.067 301.012 223.557ZM314.252 212.195C314.252 211.88 314.364 211.617 314.589 211.407C314.814 211.182 315.092 211.07 315.422 211.07C315.767 211.07 316.044 211.182 316.254 211.407C316.464 211.617 316.569 211.88 316.569 212.195C316.569 212.51 316.464 212.78 316.254 213.005C316.044 213.215 315.767 213.32 315.422 213.32C315.092 213.32 314.814 213.215 314.589 213.005C314.364 212.78 314.252 212.51 314.252 212.195ZM314.522 219.935H316.322V225.83C316.247 225.86 316.134 225.89 315.984 225.92C315.834 225.965 315.669 225.987 315.489 225.987C315.174 225.987 314.934 225.927 314.769 225.807C314.604 225.672 314.522 225.462 314.522 225.177V219.935ZM316.322 220.812H314.522V215.525C314.597 215.495 314.709 215.465 314.859 215.435C315.024 215.39 315.197 215.367 315.377 215.367C315.692 215.367 315.924 215.435 316.074 215.57C316.239 215.69 316.322 215.9 316.322 216.2V220.812ZM319.859 219.935H321.659V223.04C321.659 223.64 321.832 224.067 322.177 224.322C322.522 224.562 322.994 224.682 323.594 224.682C323.849 224.682 324.134 224.637 324.449 224.547C324.764 224.457 325.027 224.352 325.237 224.232C325.327 224.322 325.409 224.435 325.484 224.57C325.559 224.705 325.597 224.862 325.597 225.042C325.597 225.372 325.402 225.642 325.012 225.852C324.622 226.062 324.082 226.167 323.392 226.167C322.342 226.167 321.487 225.935 320.827 225.47C320.182 225.005 319.859 224.232 319.859 223.152V219.935ZM320.782 217.19V215.705H325.349C325.394 215.765 325.439 215.862 325.484 215.997C325.529 216.132 325.552 216.275 325.552 216.425C325.552 216.665 325.492 216.852 325.372 216.987C325.252 217.122 325.087 217.19 324.877 217.19H320.782ZM321.659 220.61H319.859V212.465C319.934 212.435 320.047 212.405 320.197 212.375C320.362 212.33 320.534 212.307 320.714 212.307C321.029 212.307 321.262 212.375 321.412 212.51C321.577 212.63 321.659 212.832 321.659 213.117V220.61Z" fill="black"/>
<path d="M339.5 222.5C337.774 222.5 336.375 221.101 336.375 219.375C336.375 217.649 337.774 216.25 339.5 216.25C341.226 216.25 342.625 217.649 342.625 219.375C342.625 221.101 341.226 222.5 339.5 222.5Z" fill="#3D348B"/>
<path d="M356.058 219.17H358.646C359.756 219.17 360.626 218.93 361.256 218.45C361.886 217.97 362.201 217.257 362.201 216.312C362.201 215.382 361.871 214.677 361.211 214.197C360.551 213.717 359.606 213.477 358.376 213.477C357.971 213.477 357.558 213.5 357.138 213.545C356.733 213.575 356.373 213.62 356.058 213.68V219.17ZM358.646 220.7H354.236V213.185C354.236 212.945 354.296 212.765 354.416 212.645C354.551 212.51 354.738 212.405 354.978 212.33C355.413 212.195 355.946 212.097 356.576 212.037C357.221 211.977 357.843 211.947 358.443 211.947C360.318 211.947 361.721 212.33 362.651 213.095C363.581 213.86 364.046 214.932 364.046 216.312C364.046 217.197 363.843 217.97 363.438 218.63C363.033 219.29 362.433 219.8 361.638 220.16C360.843 220.52 359.846 220.7 358.646 220.7ZM358.691 220.115L360.041 219.44C360.461 219.965 360.896 220.512 361.346 221.082C361.796 221.652 362.231 222.207 362.651 222.747C363.071 223.287 363.446 223.775 363.776 224.21C364.106 224.63 364.361 224.96 364.541 225.2C364.481 225.455 364.346 225.657 364.136 225.807C363.941 225.957 363.738 226.032 363.528 226.032C363.273 226.032 363.063 225.972 362.898 225.852C362.733 225.717 362.561 225.53 362.381 225.29L358.691 220.115ZM354.236 220.205H356.081V225.83C355.991 225.86 355.871 225.89 355.721 225.92C355.571 225.965 355.406 225.987 355.226 225.987C354.896 225.987 354.648 225.92 354.483 225.785C354.318 225.65 354.236 225.44 354.236 225.155V220.205ZM367.603 221.825L367.513 220.407L374.308 219.485C374.248 218.66 373.963 217.985 373.453 217.46C372.943 216.92 372.238 216.65 371.338 216.65C370.408 216.65 369.636 216.987 369.021 217.662C368.421 218.322 368.121 219.275 368.121 220.52V221.015C368.226 222.215 368.616 223.13 369.291 223.76C369.981 224.375 370.918 224.682 372.103 224.682C372.733 224.682 373.303 224.577 373.813 224.367C374.323 224.157 374.728 223.932 375.028 223.692C375.193 223.797 375.321 223.925 375.411 224.075C375.516 224.21 375.568 224.367 375.568 224.547C375.568 224.832 375.403 225.102 375.073 225.357C374.758 225.597 374.331 225.792 373.791 225.942C373.266 226.092 372.673 226.167 372.013 226.167C370.858 226.167 369.853 225.957 368.998 225.537C368.158 225.117 367.506 224.495 367.041 223.67C366.591 222.83 366.366 221.81 366.366 220.61C366.366 219.755 366.486 218.997 366.726 218.337C366.981 217.662 367.326 217.092 367.761 216.627C368.211 216.162 368.743 215.81 369.358 215.57C369.973 215.315 370.641 215.187 371.361 215.187C372.276 215.187 373.078 215.382 373.768 215.772C374.473 216.162 375.021 216.71 375.411 217.415C375.816 218.105 376.018 218.9 376.018 219.8C376.018 220.13 375.943 220.37 375.793 220.52C375.643 220.655 375.433 220.737 375.163 220.767L367.603 221.825ZM382.331 226.19C380.921 226.19 379.826 225.912 379.046 225.357C378.281 224.802 377.898 224 377.898 222.95C377.898 221.975 378.221 221.232 378.866 220.722C379.526 220.197 380.433 219.882 381.588 219.777L384.783 219.462V218.832C384.783 218.082 384.558 217.535 384.108 217.19C383.658 216.845 383.051 216.672 382.286 216.672C381.671 216.672 381.078 216.762 380.508 216.942C379.953 217.122 379.458 217.325 379.023 217.55C378.903 217.445 378.791 217.325 378.686 217.19C378.596 217.04 378.551 216.89 378.551 216.74C378.551 216.35 378.768 216.05 379.203 215.84C379.608 215.63 380.073 215.472 380.598 215.367C381.138 215.247 381.708 215.187 382.308 215.187C383.613 215.187 384.648 215.48 385.413 216.065C386.178 216.65 386.561 217.572 386.561 218.832V224.165C386.561 224.495 386.493 224.75 386.358 224.93C386.238 225.095 386.051 225.252 385.796 225.402C385.436 225.597 384.956 225.777 384.356 225.942C383.756 226.107 383.081 226.19 382.331 226.19ZM382.331 224.705C382.961 224.705 383.478 224.645 383.883 224.525C384.303 224.39 384.603 224.262 384.783 224.142V220.88L381.993 221.172C381.213 221.232 380.636 221.405 380.261 221.69C379.886 221.975 379.698 222.387 379.698 222.927C379.698 223.482 379.916 223.917 380.351 224.232C380.801 224.547 381.461 224.705 382.331 224.705ZM396.934 224.097V216.537L398.734 216.515V224.165C398.734 224.45 398.666 224.682 398.531 224.862C398.411 225.027 398.216 225.192 397.946 225.357C397.646 225.552 397.219 225.732 396.664 225.897C396.109 226.077 395.471 226.167 394.751 226.167C393.671 226.167 392.719 225.98 391.894 225.605C391.069 225.23 390.424 224.645 389.959 223.85C389.494 223.04 389.261 221.997 389.261 220.722C389.261 219.417 389.486 218.36 389.936 217.55C390.401 216.74 391.024 216.147 391.804 215.772C392.584 215.382 393.439 215.187 394.369 215.187C394.954 215.187 395.509 215.27 396.034 215.435C396.559 215.6 396.971 215.802 397.271 216.042V217.707C396.986 217.422 396.611 217.182 396.146 216.987C395.696 216.777 395.164 216.672 394.549 216.672C393.934 216.672 393.364 216.807 392.839 217.077C392.314 217.332 391.894 217.76 391.579 218.36C391.264 218.96 391.106 219.762 391.106 220.767C391.106 222.132 391.436 223.13 392.096 223.76C392.756 224.375 393.634 224.682 394.729 224.682C395.254 224.682 395.681 224.63 396.011 224.525C396.356 224.405 396.664 224.262 396.934 224.097ZM398.734 216.965L396.934 216.987V211.295C397.009 211.265 397.121 211.235 397.271 211.205C397.436 211.16 397.601 211.137 397.766 211.137C398.096 211.137 398.336 211.205 398.486 211.34C398.651 211.46 398.734 211.662 398.734 211.947V216.965ZM406.498 212.195C406.498 211.88 406.61 211.617 406.835 211.407C407.06 211.182 407.338 211.07 407.668 211.07C408.013 211.07 408.29 211.182 408.5 211.407C408.71 211.617 408.815 211.88 408.815 212.195C408.815 212.51 408.71 212.78 408.5 213.005C408.29 213.215 408.013 213.32 407.668 213.32C407.338 213.32 407.06 213.215 406.835 213.005C406.61 212.78 406.498 212.51 406.498 212.195ZM406.768 219.935H408.568V225.83C408.493 225.86 408.38 225.89 408.23 225.92C408.08 225.965 407.915 225.987 407.735 225.987C407.42 225.987 407.18 225.927 407.015 225.807C406.85 225.672 406.768 225.462 406.768 225.177V219.935ZM408.568 220.812H406.768V215.525C406.843 215.495 406.955 215.465 407.105 215.435C407.27 215.39 407.443 215.367 407.623 215.367C407.938 215.367 408.17 215.435 408.32 215.57C408.485 215.69 408.568 215.9 408.568 216.2V220.812ZM412.105 219.935H413.905V223.04C413.905 223.64 414.077 224.067 414.422 224.322C414.767 224.562 415.24 224.682 415.84 224.682C416.095 224.682 416.38 224.637 416.695 224.547C417.01 224.457 417.272 224.352 417.482 224.232C417.572 224.322 417.655 224.435 417.73 224.57C417.805 224.705 417.842 224.862 417.842 225.042C417.842 225.372 417.647 225.642 417.257 225.852C416.867 226.062 416.327 226.167 415.637 226.167C414.587 226.167 413.732 225.935 413.072 225.47C412.427 225.005 412.105 224.232 412.105 223.152V219.935ZM413.027 217.19V215.705H417.595C417.64 215.765 417.685 215.862 417.73 215.997C417.775 216.132 417.797 216.275 417.797 216.425C417.797 216.665 417.737 216.852 417.617 216.987C417.497 217.122 417.332 217.19 417.122 217.19H413.027ZM413.905 220.61H412.105V212.465C412.18 212.435 412.292 212.405 412.442 212.375C412.607 212.33 412.78 212.307 412.96 212.307C413.275 212.307 413.507 212.375 413.657 212.51C413.822 212.63 413.905 212.832 413.905 213.117V220.61Z" fill="black"/>
</g>
<defs>
<filter id="filter0_d_10_15149" x="137.51" y="125.25" width="332.021" height="75.572" filterUnits="userSpaceOnUse" color-interpolation-filters="sRGB">
<feFlood flood-opacity="0" result="BackgroundImageFix"/>
<feColorMatrix in="SourceAlpha" type="matrix" values="0 0 0 0 0 0 0 0 0 0 0 0 0 0 0 0 0 0 127 0" result="hardAlpha"/>
<feOffset dx="0.9375" dy="0.9375"/>
<feGaussianBlur stdDeviation="1.17188"/>
<feComposite in2="hardAlpha" operator="out"/>
<feColorMatrix type="matrix" values="0 0 0 0 0.239216 0 0 0 0 0.203922 0 0 0 0 0.545098 0 0 0 0.4 0"/>
<feBlend mode="normal" in2="BackgroundImageFix" result="effect1_dropShadow_10_15149"/>
<feBlend mode="normal" in="SourceGraphic" in2="effect1_dropShadow_10_15149" result="shape"/>
</filter>
<clipPath id="clip0_10_15149">
<rect width="600" height="338" fill="white"/>
</clipPath>
<clipPath id="clip1_10_15149">
<rect width="341.875" height="341.875" fill="white" transform="matrix(-1 0 0 1 600 0)"/>
</clipPath>
<clipPath id="clip2_10_15149">
<rect width="170.938" height="170.938" fill="white" transform="matrix(1 0 0 -1 429.062 170.938)"/>
</clipPath>
<clipPath id="clip3_10_15149">
<rect width="170.938" height="170.938" fill="white" transform="matrix(0 1 1 0 429.062 170.938)"/>
</clipPath>
<clipPath id="clip4_10_15149">
<rect width="170.938" height="171.191" fill="white" transform="matrix(-1 0 0 1 170.937 0)"/>
</clipPath>
<clipPath id="clip5_10_15149">
<rect width="170.938" height="171.191" fill="white" transform="matrix(-1 0 0 1 170.937 171.191)"/>
</clipPath>
</defs>
</svg>
